<?xml version="1.0" encoding="UTF-8"?>
<svg width="800" height="600" viewBox="0 0 800 600" xmlns="http://www.w3.org/2000/svg">
  <!-- Sky gradient -->
  <defs>
    <linearGradient id="skyGradient" x1="0%" y1="0%" x2="0%" y2="100%">
      <stop offset="0%" style="stop-color:#87CEEB;stop-opacity:1" />
      <stop offset="100%" style="stop-color:#E0F6FF;stop-opacity:1" />
    </linearGradient>
    <linearGradient id="buildingGradient" x1="0%" y1="0%" x2="0%" y2="100%">
      <stop offset="0%" style="stop-color:#F5F5F5;stop-opacity:1" />
      <stop offset="100%" style="stop-color:#E0E0E0;stop-opacity:1" />
    </linearGradient>
  </defs>
  
  <!-- Sky background -->
  <rect width="800" height="600" fill="url(#skyGradient)"/>
  
  <!-- Ground -->
  <rect x="0" y="450" width="800" height="150" fill="#90EE90"/>
  
  <!-- University building -->
  <rect x="100" y="200" width="300" height="250" fill="url(#buildingGradient)" stroke="#C0C0C0" stroke-width="2"/>
  
  <!-- Building roof -->
  <polygon points="100,200 250,120 400,200" fill="#8B4513"/>
  
  <!-- Windows -->
  <rect x="130" y="240" width="40" height="60" fill="#87CEEB" stroke="#666" stroke-width="1"/>
  <rect x="190" y="240" width="40" height="60" fill="#87CEEB" stroke="#666" stroke-width="1"/>
  <rect x="250" y="240" width="40" height="60" fill="#87CEEB" stroke="#666" stroke-width="1"/>
  <rect x="310" y="240" width="40" height="60" fill="#87CEEB" stroke="#666" stroke-width="1"/>
  
  <rect x="130" y="320" width="40" height="60" fill="#87CEEB" stroke="#666" stroke-width="1"/>
  <rect x="190" y="320" width="40" height="60" fill="#87CEEB" stroke="#666" stroke-width="1"/>
  <rect x="250" y="320" width="40" height="60" fill="#87CEEB" stroke="#666" stroke-width="1"/>
  <rect x="310" y="320" width="40" height="60" fill="#87CEEB" stroke="#666" stroke-width="1"/>
  
  <!-- Main entrance -->
  <rect x="220" y="380" width="60" height="70" fill="#8B4513"/>
  <rect x="235" y="395" width="30" height="55" fill="#654321"/>
  
  <!-- Trees -->
  <circle cx="500" cy="350" r="50" fill="#228B22"/>
  <rect x="495" y="350" width="10" height="100" fill="#8B4513"/>
  
  <circle cx="600" cy="330" r="40" fill="#228B22"/>
  <rect x="596" y="330" width="8" height="120" fill="#8B4513"/>
  
  <!-- Students walking -->
  <circle cx="350" cy="420" r="8" fill="#FFB366"/>
  <rect x="347" y="428" width="6" height="22" fill="#4169E1"/>
  
  <circle cx="380" cy="425" r="8" fill="#FFB366"/>
  <rect x="377" y="433" width="6" height="17" fill="#FF69B4"/>
  
  <!-- Pathway -->
  <rect x="0" y="440" width="800" height="20" fill="#C0C0C0"/>
</svg>
