<svg preserveAspectRatio="none" width="100%" height="100%" overflow="visible" style="display: block;" viewBox="0 0 24 21" fill="none" xmlns="http://www.w3.org/2000/svg">
<g id="Group">
<path id="Vector" d="M3.41667 10.6667V1M20.3333 20.3333V16.7083M3.41667 20.3333V15.5M20.3333 11.875V1M11.875 4.625V1M11.875 20.3333V9.45833" stroke="var(--stroke-0, black)" stroke-linecap="round"/>
<path id="Vector_2" d="M3.41667 15.5C4.75135 15.5 5.83333 14.418 5.83333 13.0833C5.83333 11.7486 4.75135 10.6667 3.41667 10.6667C2.08198 10.6667 1 11.7486 1 13.0833C1 14.418 2.08198 15.5 3.41667 15.5Z" stroke="var(--stroke-0, black)" stroke-linecap="round"/>
<path id="Vector_3" d="M11.875 9.45833C13.2097 9.45833 14.2917 8.37635 14.2917 7.04167C14.2917 5.70698 13.2097 4.625 11.875 4.625C10.5403 4.625 9.45833 5.70698 9.45833 7.04167C9.45833 8.37635 10.5403 9.45833 11.875 9.45833Z" stroke="var(--stroke-0, black)" stroke-linecap="round"/>
<path id="Vector_4" d="M20.3333 16.7083C21.668 16.7083 22.75 15.6264 22.75 14.2917C22.75 12.957 21.668 11.875 20.3333 11.875C18.9986 11.875 17.9167 12.957 17.9167 14.2917C17.9167 15.6264 18.9986 16.7083 20.3333 16.7083Z" stroke="var(--stroke-0, black)" stroke-linecap="round"/>
</g>
</svg>
